<?xml version="1.0" encoding="utf-8"?>
<!-- Generator: Adobe Illustrator 19.0.0, SVG Export Plug-In . SVG Version: 6.00 Build 0)  -->
<svg version="1.0" id="Capa_1" xmlns="http://www.w3.org/2000/svg" xmlns:xlink="http://www.w3.org/1999/xlink" x="0px" y="0px"
	 viewBox="201 -201.9 914.9 914.9" style="enable-background:new 201 -201.9 914.9 914.9;" xml:space="preserve">
<style type="text/css">
	.st0{fill:#D20A0A;}
</style>
<g>
	<g>
		<path class="st0" d="M687.8-143.3c-11.4,0-22.7,0.5-33.9,1.3v88.9c0,21.7-17,39.7-38.7,40.9c-29.2,1.6-57.3,8.5-83.7,20.3
			C505,20,481.1,36.5,460.3,57.3c-20.8,20.8-37.4,44.8-49.2,71.2c-11.8,26.4-18.6,54.5-20.3,83.7c-1.2,21.7-19.2,38.7-40.9,38.7
			h-88.9c-0.9,11.2-1.3,22.5-1.3,33.9c0,236.5,191.7,428.2,428.2,428.2s428.2-191.7,428.2-428.2
			C1115.9,48.4,924.2-143.3,687.8-143.3z M871.6,468.7c-49.1,49.1-114.4,76.2-183.9,76.2c-69.4,0-134.7-27-183.8-76.2
			s-76.2-114.4-76.2-183.9c0-69.5,27-134.7,76.2-183.9C553,51.9,618.3,24.8,687.8,24.8s134.7,27,183.9,76.2s76.2,114.4,76.2,183.9
			C947.8,354.3,920.7,419.6,871.6,468.7z"/>
		<path class="st0" d="M687.8,74.8c-115.8,0-210,94.2-210,210s94.2,210,210,210c115.8,0,210-94.2,210-210
			C897.8,169,803.6,74.8,687.8,74.8z M687.8,120.2c13,0,23.5,10.5,23.5,23.5c0,13-10.5,23.5-23.5,23.5c-13,0-23.5-10.5-23.5-23.5
			C664.3,130.7,674.8,120.2,687.8,120.2z M545.3,309.7c-13,0-23.5-10.5-23.5-23.5c0-13,10.5-23.5,23.5-23.5s23.5,10.5,23.5,23.5
			C568.8,299.2,558.2,309.7,545.3,309.7z M687.8,452.2c-13,0-23.5-10.5-23.5-23.5s10.5-23.5,23.5-23.5c13,0,23.5,10.5,23.5,23.5
			S700.8,452.2,687.8,452.2z M687.8,359.9c-41.4,0-75-33.6-75-75c0-41.4,33.6-75,75-75c41.4,0,75,33.6,75,75
			C762.8,326.3,729.2,359.9,687.8,359.9z M853.8,286.2c0,13-10.5,23.5-23.5,23.5c-13,0-23.5-10.5-23.5-23.5
			c0-13,10.5-23.5,23.5-23.5C843.3,262.7,853.8,273.2,853.8,286.2z"/>
		<path class="st0" d="M217,225.9h46.6h86.3c8.5,0,15.5-6.6,16-15.1c3.6-64.7,30.6-125,76.7-171.2c46.2-46.2,106.5-73.1,171.2-76.7
			c8.5-0.5,15.1-7.5,15.1-16v-86.3v-46.6c0-8.8-7.1-16-15.9-16c-0.2,0-0.4,0-0.6,0C389-193.5,209.5-13.9,201,209.4
			C200.7,218.5,208,225.9,217,225.9z"/>
	</g>
</g>
</svg>
