<?xml version="1.0" encoding="utf-8"?>
<!-- Generator: Adobe Illustrator 19.0.0, SVG Export Plug-In . SVG Version: 6.00 Build 0)  -->
<svg version="1.0" id="Layer_1" xmlns="http://www.w3.org/2000/svg" xmlns:xlink="http://www.w3.org/1999/xlink" x="0px" y="0px"
	 viewBox="0 0 512 512" style="enable-background:new 0 0 512 512;" xml:space="preserve">
<style type="text/css">
	.st0{display:none;}
	.st1{display:inline;fill:#CC0000;}
	.st2{fill:#D20A0A;}
</style>
<g id="XMLID_1_" class="st0">
	<path id="XMLID_38_" class="st1" d="M-169.7,143.2c-1.9-14.7-5.4-29-12.7-42.5c-8-14.9-21.1-24-40-24.9c-18.3-0.9-36.6-0.6-55-0.9
		c-1.8,0-3.7,0-4.9,0c-0.9-14-0.8-27.4-2.9-40.6c-6.6-41.5-28.8-74.9-69.9-97.2c-38.5-21-80.6-26.9-125-20.3
		c-77.2,11.6-130.1,64.4-132,133.2c-1.1,39.8-0.3,79.7-0.4,119.5c0,1.6,0,3.2,0,5.3c-7.2,0-13.7,0.1-20.2,0c-3.9,0-6.5,1.2-8.5,4.3
		c-11.3,17.6-22.7,35.1-34.1,52.6c-3.3,5-4.8,10.3-4.7,16.1c0.1,24.1,0,48.3,0,72.4c0,1.5,0.2,2.9,0.3,4.4h151.8
		c0.2-1.1,0.4-2.1,0.4-3c0-25.1,0.2-50.2-0.2-75.3c-0.1-4.7-1.8-9.8-4.4-13.9c-10.7-17.2-22.1-34.1-32.9-51.3
		c-2.8-4.5-6.1-6.7-12.1-6.3c-5.8,0.4-11.7,0.1-17.6,0.1c-0.2-1.3-0.3-2-0.3-2.7c0-39.7-0.4-79.4,0.2-119.1
		c0.5-29.7,10.6-56.8,32.8-79.8c1.1-1.2,2.3-2.2,3.5-3.3c-1.6,4.1-4.1,7.7-6.1,11.5c-13.8,24.9-16.9,51.3-12.4,78.4
		c12.1,71.9,89.5,102.9,156.6,95.5c0.7-4.8,1-9.6,1.4-14.5c-4.4,0.4-8.1,0.9-11.7,1.1c-41.8,2.1-78.6-7.8-105.7-37.2
		c-25.2-27.4-29.3-59.4-21.5-92.8c7-30.2,26.9-52.3,58.2-66.1c25.8-11.4,53.2-14.2,81.5-9.9c26.2,4,49,13.9,67.1,31.5
		c20.3,19.7,28.8,43.4,28.6,69.5c-0.1,11.3-2.1,22.5-3.2,34.1h17.9c1.3-12.7,2.8-29.4,4.1-40c3.6,12.8,2.6,28.1,2.7,43.9
		c-2.5,0-4.3,0-6.2,0c-16.3,0.1-32.5,0-48.8,0.3c-23.4,0.4-39.4,10.4-47.9,29.7c-0.6,1.3-1.2,2.6-1.7,3.9
		c-9,22.9-11.5,46.5-10.1,70.5c1.3,20.8,6.3,40.5,21.2,57.5c5.6,6.3,7,14,7,21.9c0,42.5,0,85,0.1,127.5c0.1,22.8,19.6,40,45.3,40.1
		c33,0.1,66,0.1,99,0c27.2-0.1,46.2-16.9,46.3-40.9c0.1-40.8,0.2-81.6-0.1-122.4c-0.1-11.9,2.9-22.4,11.3-31.8
		c6.5-7.3,10.2-15.8,12.6-24.8C-167.2,185.5-167,164.4-169.7,143.2z M-291.5,368.9c-9.4,0.2-17.2-6.4-17.3-14.7
		c-0.1-8.5,7.5-14.8,18.1-14.9c8.8-0.1,15.3,6,15.4,14.5C-275.2,362.1-282.2,368.6-291.5,368.9z M-308.8,288.7
		c0.1-8,7.7-14.6,16.9-14.6c9.2,0,16.6,6.6,16.6,14.7c0,8.1-7.3,14.7-16.6,14.8C-301.1,303.8-308.9,296.9-308.8,288.7z M-237,107.2
		c19.8,2.2,29,11.7,30.6,29.1c1.4,15.3,0.1,30.6-3.1,45.6c-3.4,15.7-10.8,21.9-28.7,24.4c-36.1,5.1-72.3,4.9-108.5,0
		c-14.8-2-24.2-9-27.2-21.8c-4.1-17.2-5.7-34.7-3.1-52.3c2-13.4,10.2-21.7,25.2-24.2c12-2,24.3-2.6,36.5-3.4
		c7.6-0.5,15.3-0.1,22.9-0.1"/>
	<path id="XMLID_3_" class="st1" d="M-665.9,352.5c0-8,0-15.7,0-23.7c41.5,0,82.7,0,124.4,0c0,7.8,0,15.6,0,23.7
		C-582.8,352.5-624.1,352.5-665.9,352.5z"/>
	<path id="XMLID_2_" class="st1" d="M-292.2,130.6c17.8,0,35.7,0,53.5,0c7.8,0,10.1,1.9,10.1,8.6c0,12.1,0,24.1,0,36.2
		c0,6.5-2.2,8.4-9.8,8.4c-36,0-72,0-108-0.1c-6.2,0-8.7-2.1-8.8-7.6c-0.1-12.5-0.2-24.9-0.3-37.4c0-6,2.5-8.1,9.2-8.1
		C-328.2,130.6-310.2,130.6-292.2,130.6z"/>
</g>
<g id="XMLID_34_">
	<path id="XMLID_41_" class="st2" d="M271.8,1.2c9.3,1.6,18.7,2.8,27.9,4.9c33.4,7.8,54.9,28.4,63.8,61.5c6.6,24.9,7,50.6,6.6,76.2
		c-0.3,19.1-3.7,37.7-11.5,55.2c-18.4,41-48.8,68.2-93.3,78c-14.9,3.3-29.1-1.6-42.4-8c-44.6-21.6-70.3-57.4-77.6-106.3
		c-3.4-22.8-1.8-45.7,0.4-68.6c1.5-16,4.5-31.6,12.1-45.9C169.6,25.5,188.5,12,213,6.3c9.5-2.2,19.2-3.4,28.9-5.1
		C251.9,1.2,261.9,1.2,271.8,1.2z M160.4,120.2c-1.3,25-0.3,40.9,5.8,60.5c11.8,37.8,36.5,63.8,73.9,77.1c6.8,2.4,14.8,3.7,21.9,2.7
		c21.6-3,39.5-14.2,54.9-29.2c31.4-30.5,39.3-69,36.4-111c-2.8,3.2-5.2,6.5-8.1,9.3c-4.8,4.5-8.5,4.6-13.6,0.5
		c-5.2-4.1-10.2-8.5-15.4-12.6C285.7,94,238.6,91.4,206.3,112c-8.5,5.4-16.1,12.2-24.2,18.3c-5,3.8-8.7,3.8-13.3-0.6
		C165.9,127,163.4,123.6,160.4,120.2z M293.8,52.1c-24.8-8.1-49.1-8.1-73.9,0c2.8,7,5.4,13.7,8.3,20.9c19.2-6.4,38.3-6.1,57.2-0.1
		C288.4,65.5,291,59.1,293.8,52.1z"/>
	<path id="XMLID_40_" class="st2" d="M257,330.9c3.9-10.3,7.4-19.5,10.9-28.7c0.3-0.8,0.7-1.5,0.9-2.3c1.9-9.3,7.7-13.6,16.9-15.7
		c11.4-2.6,21.6-8.6,30.8-15.7c4.9-3.8,9.3-3.9,14.6-0.9c28.8,16.2,57.6,32.4,86.6,48.1c15,8.1,24.2,20.9,31,35.9
		c9.5,21.2,14.8,43.7,18.3,66.5c0.6,3.6-1.2,8.2-3.3,11.5c-8.3,13.1-20.6,21.9-33.9,29.4c-3.3,1.9-6.7,3.4-10.2,5.2
		c-0.4-0.8-0.8-1.2-0.8-1.6c0.7-11.3-5.1-16.5-16-18.2c-13.1-2.1-26.1-4.8-39.2-7c-2.9-0.5-5.9-0.1-8.9,0.3c-2.6,0.4-5.2,1.1-7.7,2
		c-20.7,7.8-42.3,4.5-63.9,5.3c-0.3-2.9-0.3-5.3-0.8-7.7c-2.3-11.9-12.3-21-24.5-21.1c-36.2-0.2-72.5-0.3-108.7,0
		c-14.2,0.1-24.6,11.7-24.9,26.6c-0.2,10.6,0,21.2,0,32.6c-3.1-0.9-5.7-1.6-8.3-2.5c-21.9-7.4-42.4-17.3-58.9-34.2
		C49,430.5,45,421.9,48,409.4c5.4-22.2,10.7-44.2,21-64.7c5.9-11.7,13.7-21.4,25.4-27.9c30.1-16.6,60.1-33.4,90.1-50.1
		c3.9-2.2,7.5-2,11.1,0.7c11.8,8.9,24.8,15.5,39.2,18.9c4.4,1,6.6,4,8.1,8c3.9,10.4,7.8,20.8,11.8,31.2
		C255.2,327,255.9,328.4,257,330.9z"/>
	<path id="XMLID_35_" class="st2" d="M268.9,483.1c0,5.4,0.1,10.1,0,14.9c-0.2,9.2-4.8,13.9-13.9,13.9c-34.2,0.1-68.5,0-102.7,0
		c-9.1,0-13.9-4.7-14-13.8c-0.1-17.9-0.1-35.9,0-53.8c0.1-9.5,4.7-14.1,14.1-14.2c34.1-0.1,68.1-0.1,102.2,0
		c9.7,0,14.2,4.7,14.3,14.5c0,4.6,0,9.2,0,14.3c6.3,0,12.1,0,17.8,0c13.3,0,26.6,0.4,39.9-0.2c6.2-0.3,12.5-2,18.4-4.1
		c9.9-3.6,19.6-3.5,29.7-1.1c9.8,2.3,19.8,3.7,29.9,5.5c0,8,0,15.6,0,23.9c-9,1.6-18,3.3-27.1,5c-1.6,0.3-3.3,0.4-4.9,0.9
		c-11.9,4.4-22.8-0.7-34-3.1c-6.1-1.3-12.4-2.4-18.6-2.5C303.3,482.9,286.5,483.1,268.9,483.1z M204,448.9
		C204,448.9,204,448.8,204,448.9c-10.9-0.1-21.9-0.1-32.8,0c-5.5,0-8.5,2.6-8.3,7c0.1,4.2,2.9,6.5,8.3,6.5
		c21.6,0.1,43.1,0.1,64.7,0.1c5.5,0,8.7-2.6,8.7-6.7c0-4.1-3.2-6.7-8.7-6.8C225.3,448.8,214.6,448.9,204,448.9z M203.5,493.3
		c1.5,0,3,0,4.5,0c10,0,20,0,29.9-0.2c4.2-0.1,6.5-2.8,6.5-6.7c0-3.7-2.3-6.1-6.2-6.5c-1.7-0.2-3.3-0.2-5-0.2c-18,0-35.9,0-53.9,0
		c-3.5,0-7.1-0.5-10.4,0.3c-2.2,0.5-4.8,2.6-5.5,4.6c-0.7,1.8,0.4,5,1.8,6.6c1.3,1.4,4.2,1.9,6.4,1.9
		C182.2,493.4,192.8,493.3,203.5,493.3z"/>
</g>
</svg>
