<?xml version="1.0" encoding="utf-8"?>
<!-- Generator: Adobe Illustrator 19.0.0, SVG Export Plug-In . SVG Version: 6.00 Build 0)  -->
<svg version="1.0" id="Layer_1" xmlns="http://www.w3.org/2000/svg" xmlns:xlink="http://www.w3.org/1999/xlink" x="0px" y="0px"
	 viewBox="0 0 512 512" style="enable-background:new 0 0 512 512;" xml:space="preserve">
<style type="text/css">
	.st0{fill:#D20A0A;}
</style>
<g>
	<path class="st0" d="M0,371.8C0,304.2,0,237.4,0,170c11,0,21.9,0,33.7,0c0,21.9,0,43.8,0,66.1c6.2,0,11.7,0,17.8,0
		c0-10.6-0.1-20.9,0-31.2c0-5.6-0.1-11.1,0.6-16.6c1.1-9.9,8.8-17.7,18.7-18.6c7.7-0.7,15.5-0.2,23.2-0.7c2.9-0.2,6.2-1.4,8.3-3.3
		c8.5-7.5,16.6-15.4,24.8-23.2c5.3-5.1,11.4-7.5,18.8-7.4c18.4,0.2,36.9,0.1,55.8,0.1c0-6,0-11.6,0-17.7c-22,0-43.7,0-66.5,0
		c0-11.1-0.1-21.7,0.2-32.3c0-0.7,3-2,4.7-2c10.9-0.2,21.8-0.1,32.8-0.1c52.4,0,104.8,0,157.3,0c2.1,0,4.3,0,6.8,0
		c0,11.6,0,22.4,0,34c-22,0-43.9,0-66.3,0c0,6.2,0,11.6,0,17.9c2,0.1,4,0.3,6.1,0.3c16.5,0,33,0.2,49.4-0.1
		c7.9-0.1,14.2,2.5,19.8,7.9c8,7.7,16,15.5,24.3,22.8c2,1.8,5.1,2.9,7.8,3.1c6.5,0.4,13.1-0.1,19.6,0.2c14.4,0.7,22.9,9.5,23.2,24.1
		c0.3,11.9,0.1,23.8,0.1,35.7c0,2.2,0,4.3,0,7c5.8,0,11.2,0,17.6,0c0-21.8,0-43.7,0-66.1c2.7-0.2,4.7-0.4,6.6-0.4
		c15.9,0,31.8,0.2,47.7-0.1c4.5-0.1,6.1,1.6,7.1,5.7c12.8,50.7,15.2,101.9,7.4,153.6c-1.9,12.5-5,24.9-7.4,37.3
		c-0.8,4.1-2.5,5.9-7.1,5.8c-16.1-0.3-32.2-0.2-48.3,0c-4.4,0.1-5.8-1.3-5.8-5.8c0.2-17.9,0.1-35.7,0.1-53.6c0-2.3,0-4.7,0-7.4
		c-6.2,0-11.6,0-17.6,0c-0.1,2.2-0.3,4.3-0.3,6.4c0,28.4,0,56.8-0.1,85.2c0,21-11.5,32.5-32.4,32.5c-51.8,0-103.7-0.1-155.5,0.1
		c-9.7,0-17.5-2.8-24.8-9.3c-16.9-15.1-34.2-29.7-51.6-44.2c-2.7-2.3-7-3.9-10.5-3.9c-22.6-0.4-45.3-0.2-67.9-0.2
		c-18.5,0-26.9-8.5-27-26.9c0-12.5-0.1-25-0.1-37.5c0-0.6-0.3-1.1-0.6-2.1c-5.4,0-10.8,0-16.9,0c0,2.6,0,4.9,0,7.2
		c0,17.7-0.2,35.3,0.1,53c0.1,5.7-1.8,7.1-7.1,6.8C18.1,371.5,9.2,371.8,0,371.8z M232.3,359.1c10.4,5,20.7,9.9,31.1,14.9
		c6.4-10.6,7.3-23.2,23.5-23.3c16.5-0.1,17.1,13.2,23.9,23.2c10.6-5.1,21-10.2,31.4-15.2c-3.1-6.3-6.2-10.9-7.5-16
		c-1-3.8-0.4-8.5,0.8-12.3c1.1-3.2,4.1-5.8,6.4-8.5c3.4-4,7.7-5.3,12.9-3.9c4,1.1,8,2.3,12.1,2.9c1.4,0.2,4.1-1.1,4.4-2.2
		c2.9-10,5.4-20,8.1-30.3c-11.8-4.3-24.7-1.8-28.4-18c-3.8-16.3,9.3-19.5,17.4-28.5c-7.1-8.9-14.1-17.8-21.5-27.1
		c-5.3,4.3-9.5,7.6-13.5,11c-3.7,3.1-7.8,3.8-12.2,2c-3.5-1.4-6.9-3.1-10.2-4.9c-4.3-2.4-6.6-6.1-6.3-11.3c0.2-4.2,0.4-8.4-0.1-12.5
		c-0.2-1.6-2.1-4-3.4-4.2c-6.7-0.8-13.5-1.8-20.1-1c-13.4,1.6-11.2-1-11.2,12.3c0,1.6,0,3.2,0.1,4.8c0.3,5.8-2.3,9.8-7.5,12.3
		c-2.7,1.3-5.3,2.7-8,3.9c-5,2.1-9.6,1.7-13.9-1.9c-4-3.4-8.2-6.7-13.4-10.9c-7.5,9.5-14.4,18.5-21.7,27.7c5,3.9,8.6,7,12.5,9.7
		c5.3,3.6,6.7,8.6,5.5,14.5c-0.5,2.7-1.3,5.4-1.9,8.1c-1.3,5.4-4.5,8.6-10,9.6c-4.1,0.8-8.2,1.5-12.2,2.8c-1.4,0.5-3.3,2.5-3.2,3.8
		c0.3,10.8,3,21,7.6,31.1c11.1-1.4,21.6-8.9,32,4.2C246.1,338.9,235.9,347.4,232.3,359.1z M205.7,222.1c-3.5-5.8-7-11.4-10.3-17
		c-15.9,8.4-27.8,2.5-29.8-13.8c-0.2-1.2-1.5-3.2-2.4-3.3c-6-0.3-11.9-0.2-17.8-0.2c-1.2,19.3-12.5,25.7-30.2,17.2
		c-3.3,5.7-6.6,11.5-10.4,18c9.1,3.1,11.9,8.4,12.1,16.7c0.2,8.9-4.1,13.5-12.1,17c3.8,6.3,7.2,11.9,10.6,17.4
		c17.9-8,28.1-2,30.1,17c6.6,0,13.2,0,19.8,0c0.9-18.8,12-25.1,30.2-17c3.3-5.6,6.6-11.2,9.9-16.8C189.4,245,189.4,234,205.7,222.1z
		"/>
	<path class="st0" d="M287,245.2c22.1,0,40,17.9,40.1,40.1c0,22.1-18.1,40.2-40.2,40c-22-0.1-39.4-17.7-39.6-39.8
		C247.2,263.2,264.8,245.3,287,245.2z"/>
	<path class="st0" d="M155.5,260.3c-11.3,0-20.6-8.9-20.8-20.1c-0.2-11.5,9-20.8,20.6-20.9c11.7-0.1,20.8,9,20.7,20.7
		C175.9,251.4,166.9,260.3,155.5,260.3z"/>
</g>
</svg>
