<?xml version="1.0" encoding="utf-8"?>
<!-- Generator: Adobe Illustrator 19.0.0, SVG Export Plug-In . SVG Version: 6.00 Build 0)  -->
<svg version="1.0" id="Layer_1" xmlns="http://www.w3.org/2000/svg" xmlns:xlink="http://www.w3.org/1999/xlink" x="0px" y="0px"
	 viewBox="0 0 512 512" style="enable-background:new 0 0 512 512;" xml:space="preserve">
<style type="text/css">
	.st0{fill:#D20A0A;}
</style>
<g id="XMLID_1_">
	<path id="XMLID_2_" class="st0" d="M510.3,228.9c-1.9-14.7-5.4-29-12.7-42.5c-8-14.9-21.1-24-40-24.9c-18.3-0.9-36.6-0.6-55-0.9
		c-1.8,0-3.7,0-4.9,0c-0.9-14-0.8-27.4-2.9-40.6c-6.6-41.5-28.8-74.9-69.9-97.2c-38.5-21-80.6-26.9-125-20.3
		C122.7,14.2,69.9,67,67.9,135.8c-1.1,39.8-0.3,79.7-0.4,119.5c0,1.6,0,3.2,0,5.3c-7.2,0-13.7,0.1-20.2,0c-3.9,0-6.5,1.2-8.5,4.3
		C27.6,282.5,16.2,300,4.7,317.5c-3.3,5-4.8,10.3-4.7,16.1c0.1,24.1,0,48.3,0,72.4c0,1.5,0.2,2.9,0.3,4.4h151.8
		c0.2-1.1,0.4-2.1,0.4-3c0-25.1,0.2-50.2-0.2-75.3c-0.1-4.7-1.8-9.8-4.4-13.9c-10.7-17.2-22.1-34.1-32.9-51.3
		c-2.8-4.5-6.1-6.7-12.1-6.3c-5.8,0.4-11.7,0.1-17.6,0.1c-0.2-1.3-0.3-2-0.3-2.7c0-39.7-0.4-79.4,0.2-119.1
		C85.8,109.1,96,82.1,118.2,59c1.1-1.2,2.3-2.2,3.5-3.3c-1.6,4.1-4.1,7.7-6.1,11.5c-13.8,24.9-16.9,51.3-12.4,78.4
		c12.1,71.9,89.5,102.9,156.6,95.5c0.7-4.8,1-9.6,1.4-14.5c-4.4,0.4-8.1,0.9-11.7,1.1c-41.8,2.1-78.6-7.8-105.7-37.2
		c-25.2-27.4-29.3-59.4-21.5-92.8c7-30.2,26.9-52.3,58.2-66.1c25.8-11.4,53.2-14.2,81.5-9.9c26.2,4,49,13.9,67.1,31.5
		c20.3,19.7,28.8,43.4,28.6,69.5c-0.1,11.3-2.1,22.5-3.2,34.1h17.9c1.3-12.7,2.8-29.4,4.1-40c3.6,12.8,2.6,28.1,2.7,43.9
		c-2.5,0-4.3,0-6.2,0c-16.3,0.1-32.5,0-48.8,0.3c-23.4,0.4-39.4,10.4-47.9,29.7c-0.6,1.3-1.2,2.6-1.7,3.9
		c-9,22.9-11.5,46.5-10.1,70.5c1.3,20.8,6.3,40.5,21.2,57.5c5.6,6.3,7,14,7,21.9c0,42.5,0,85,0.1,127.5c0.1,22.8,19.6,40,45.3,40.1
		c33,0.1,66,0.1,99,0c27.2-0.1,46.2-16.9,46.3-40.9c0.1-40.8,0.2-81.6-0.1-122.4c-0.1-11.9,2.9-22.4,11.3-31.8
		c6.5-7.3,10.2-15.8,12.6-24.8C512.8,271.1,513,250.1,510.3,228.9z M388.5,454.6c-9.4,0.2-17.2-6.4-17.3-14.7
		c-0.1-8.5,7.5-14.8,18.1-14.9c8.8-0.1,15.3,6,15.4,14.5C404.8,447.8,397.8,454.3,388.5,454.6z M371.2,374.4
		c0.1-8,7.7-14.6,16.9-14.6c9.2,0,16.6,6.6,16.6,14.7c0,8.1-7.3,14.7-16.6,14.8C378.9,389.5,371.1,382.6,371.2,374.4z M443,192.9
		c19.8,2.2,29,11.7,30.6,29.1c1.4,15.3,0.1,30.6-3.1,45.6c-3.4,15.7-10.8,21.9-28.7,24.4c-36.1,5.1-72.3,4.9-108.5,0
		c-14.8-2-24.2-9-27.2-21.8c-4.1-17.2-5.7-34.7-3.1-52.3c2-13.4,10.2-21.7,25.2-24.2c12-2,24.3-2.6,36.5-3.4
		c7.6-0.5,15.3-0.1,22.9-0.1"/>
	<path id="XMLID_3_" class="st0" d="M14.1,438.2c0-8,0-15.7,0-23.7c41.5,0,82.7,0,124.4,0c0,7.8,0,15.6,0,23.7
		C97.2,438.2,55.9,438.2,14.1,438.2z"/>
	<path id="XMLID_8_" class="st0" d="M387.8,216.3c17.8,0,35.7,0,53.5,0c7.8,0,10.1,1.9,10.1,8.6c0,12.1,0,24.1,0,36.2
		c0,6.5-2.2,8.4-9.8,8.4c-36,0-72,0-108-0.1c-6.2,0-8.7-2.1-8.8-7.6c-0.1-12.5-0.2-24.9-0.3-37.4c0-6,2.5-8.1,9.2-8.1
		C351.8,216.3,369.8,216.3,387.8,216.3z"/>
</g>
</svg>
