<?xml version="1.0" encoding="utf-8"?>
<!-- Generator: Adobe Illustrator 19.0.0, SVG Export Plug-In . SVG Version: 6.00 Build 0)  -->
<svg version="1.0" id="Layer_1" xmlns="http://www.w3.org/2000/svg" xmlns:xlink="http://www.w3.org/1999/xlink" x="0px" y="0px"
	 viewBox="0 0 512 512" style="enable-background:new 0 0 512 512;" xml:space="preserve">
<style type="text/css">
	.st0{fill:#D20A0A;}
</style>
<g id="XMLID_1_">
	<path id="XMLID_2_" class="st0" d="M18.3,154.3C54.6,167.9,89.9,181,125,194.4c1.9,0.7,3.9,3.7,4.2,5.9c0.6,4.5,0.2,9.2,0.2,14.2
		c17.8,0,34.3,0,51.4,0c0-8.1,0-16.2,0-25.2c-7.6,0-15.1,0-23.5,0c0-10.6,0-20.2,0-30.4c27.2,0,54.5,0,82.6,0c0,9.6,0,18.8,0,28.9
		c-8.5,0-17.2,0-26.4,0c0,8.9,0,16.9,0,26.3c14,0,27.7,0,41.4,0c0.9,0,1.9,0.1,2.8-0.1c14.3-2.2,26.1,1.4,33.9,14.5
		c2.7,4.5,6.3,3.5,10.3,2.2c57-17.3,114-34.4,171-51.9c5.8-1.8,9.3-0.9,13.5,3.2c8,7.8,16.6,14.9,25.5,22.7
		c-6.5,7-12.4,13.5-18.7,19.8c-0.9,0.9-3.9,0.8-5.3,0.1c-4.5-2.4-9-5-13.1-8.2c-5-4-9.7-3.4-15.6-1.8c-10.4,2.9-17.7,8.7-24.1,17.5
		c-25.7,35.3-52.3,70.1-78.1,105.3c-10.2,14-22.9,20.5-40.5,20.3c-63.6-0.6-127.2-0.2-190.8-0.2c-20.6,0-29.4-8.9-29.4-29.5
		c0-9.6,0.2-19.2,0.1-28.8c-0.2-14.6-5.7-22.4-19.3-27.6c-20.5-7.8-41.1-15.5-61.6-23.4c-13.6-5.2-18-13.4-14.5-27.5
		C6.7,198.8,12.5,176.9,18.3,154.3z M98.1,248.6c0-11.5,0.1-21.9-0.1-32.4c0-1.3-1.3-3.2-2.4-3.6c-17.2-6.6-34.5-13.1-51.8-19.3
		c-5.2-1.8-8.5,0.7-9.7,6.1c-1.1,5.3-2.1,10.5-3.5,15.7c-1.5,5.6,0.5,8.9,5.8,10.9c9,3.2,18,6.6,27,9.9
		C74.6,240.1,85.9,244.2,98.1,248.6z"/>
	<path id="XMLID_5_" class="st0" d="M491.5,244.8c-2.7,13,3.7,21.1,9.4,29.4c8,11.6,9.1,23.8,2.8,36.4c-4.9,10-14.2,15.6-23.4,14.7
		c-8.7-0.9-15.6-7.7-18.7-18.6c-5.5-19.5,5.9-48.7,23.4-59.7C486.6,246.1,488.4,245.8,491.5,244.8z"/>
</g>
</svg>
