<?xml version="1.0" encoding="utf-8"?>
<!-- Generator: Adobe Illustrator 19.0.0, SVG Export Plug-In . SVG Version: 6.00 Build 0)  -->
<svg version="1.0" id="Layer_1" xmlns="http://www.w3.org/2000/svg" xmlns:xlink="http://www.w3.org/1999/xlink" x="0px" y="0px"
	 viewBox="0 0 512 512" style="enable-background:new 0 0 512 512;" xml:space="preserve">
<style type="text/css">
	.st0{fill:#D20A0A;}
</style>
<g id="XMLID_1_">
	<g id="XMLID_2_">
		<path class="st0" d="M486.4,63.6c-0.9-1.8-2.4-3.2-4.3-3.8l-46.3-15.8c-3.9-1.3-8.2,0.8-9.6,4.7c-1.3,3.9,0.8,8.2,4.7,9.6
			l39.2,13.3l-7,20.6l-92.1-31.4l7-20.6l22.8,7.8c3.9,1.3,8.2-0.8,9.6-4.7c1.3-3.9-0.8-8.2-4.7-9.6l-30-10.2
			c-3.9-1.3-8.2,0.8-9.6,4.7l-11.9,34.8c-0.6,1.9-0.5,4,0.4,5.8c0.9,1.8,2.4,3.2,4.3,3.8l10.3,3.5l-6.1,18c-0.1,0-0.1,0-0.2,0
			c-12.7,0-23.7,9.5-25.6,22c-1,6.8,0.6,13.7,4.7,19.3c1.5,2,3.3,3.8,5.2,5.3l-3.9,11.5c-0.1,0-0.1,0-0.2,0
			c-12.7,0-23.7,9.5-25.6,22c-1,6.8,0.6,13.7,4.7,19.3c1.5,2,3.3,3.8,5.2,5.3l-2.4,7l-10.3-3.5c-3.9-1.3-8.2,0.8-9.6,4.7L293.3,242
			c-0.6,1.9-0.5,4,0.4,5.8c0.7,1.4,1.8,2.5,3.2,3.3h-44.4v-77.8c0-31.7-18.3-59.3-44.9-72.7c-0.4-0.2-0.8-0.5-1.2-0.6
			c-10.7-5.2-22.6-8.1-35.3-8.1h-64.9c-12.6,0-24.6,2.9-35.3,8.1c-0.4,0.2-0.8,0.4-1.2,0.6c-26.6,13.4-44.9,40.9-44.9,72.7v234.2
			c0,31.7,18.3,59.3,44.8,72.7c0.4,0.2,0.8,0.5,1.2,0.6c10.7,5.2,22.6,8,35.3,8h64.9c12.6,0,24.6-2.9,35.3-8.1
			c0.4-0.2,0.8-0.4,1.2-0.6c26.6-13.4,44.9-40.9,44.9-72.7v-77.8h60.8c9.3,8.3,21.5,13.3,34.9,13.3c29,0,52.6-23.6,52.6-52.6
			c0-1.3-0.1-2.6-0.2-3.9l3.9,1.3c0.8,0.3,1.6,0.4,2.4,0.4c3.1,0,6.1-2,7.1-5.1l11.9-34.8c1.3-3.9-0.8-8.2-4.7-9.6l-10.3-3.5
			l6.7-19.6c0.1,0,0.2,0,0.3,0c12.7,0,23.7-9.5,25.6-22c1.5-9.7-2.7-19.1-10.1-24.6l3.9-11.5c0.1,0,0.2,0,0.3,0
			c12.7,0,23.7-9.5,25.6-22c1.5-9.7-2.7-19.1-10.1-24.6l1.8-5.4l10.3,3.5c0.8,0.3,1.6,0.4,2.4,0.4c3.1,0,6.1-2,7.1-5.1l11.9-34.8
			C487.4,67.5,487.3,65.4,486.4,63.6z M66.2,460.3c-15.9-12.1-26.3-31.3-26.3-52.8V173.3c0-21.5,10.3-40.7,26.3-52.8V460.3z
			 M98.6,473.3c-6.1-0.7-11.9-2.2-17.4-4.4v-22.3l17.4-17.4V473.3z M98.6,407.9l-17.4,17.4v-34.9L98.6,373V407.9z M98.6,351.7
			L81.3,369v-34.9l17.4-17.4V351.7z M98.6,295.4l-17.4,17.4v-34.9l17.4-17.4V295.4z M98.6,239.2l-17.4,17.4v-34.9l17.4-17.4V239.2z
			 M98.6,183l-17.4,17.4v-34.9l17.4-17.4V183z M98.6,126.7l-17.4,17.4v-32.2c5.5-2.2,11.3-3.8,17.4-4.4V126.7z M163.5,473.7h-49.8
			v-44.5l19.6,19.6c2.9,2.9,7.7,2.9,10.7,0l19.6-19.6V473.7z M163.5,407.9l-24.9,24.9l-24.9-24.9V373l19.6,19.6
			c2.9,2.9,7.7,2.9,10.7,0l19.6-19.6V407.9z M163.5,351.7l-24.9,24.9l-24.9-24.9v-34.9l19.6,19.6c1.4,1.4,3.3,2.2,5.3,2.2
			c2,0,3.9-0.8,5.3-2.2l19.6-19.6V351.7z M163.5,295.5l-24.9,24.9l-24.9-24.9v-34.9l19.6,19.6c1.5,1.5,3.4,2.2,5.3,2.2
			c1.9,0,3.9-0.7,5.3-2.2l19.6-19.6V295.5z M163.5,239.2l-24.9,24.9l-24.9-24.9v-34.9l19.6,19.6c1.5,1.5,3.4,2.2,5.3,2.2
			c1.9,0,3.9-0.7,5.3-2.2l19.6-19.6V239.2z M163.5,183l-24.9,24.9L113.7,183v-34.9l19.6,19.6c1.4,1.4,3.3,2.2,5.3,2.2
			c2,0,3.9-0.8,5.3-2.2l19.6-19.6V183z M163.5,126.8l-24.9,24.9l-24.9-24.9V107h49.8V126.8z M196,468.9c-5.5,2.2-11.3,3.8-17.4,4.4
			v-44.1l17.4,17.4V468.9z M196,425.3l-17.4-17.4V373l17.4,17.4V425.3z M196,369l-17.4-17.4v-34.9l17.4,17.4V369z M196,312.8
			l-17.4-17.4v-34.9l17.4,17.4V312.8z M196,256.6l-17.4-17.4v-34.9l17.4,17.4V256.6z M196,200.4L178.6,183v-34.9l17.4,17.4V200.4z
			 M196,144.1l-17.4-17.4v-19.3c6.1,0.7,11.9,2.2,17.4,4.4V144.1z M237.3,407.5c0,21.5-10.3,40.7-26.3,52.8V120.5
			c15.9,12.1,26.3,31.3,26.3,52.8V407.5z M252.4,314.6v-48.5h49c-7.1,13.6-7.8,30.4-1.8,44.5c0,0.1,0.1,0.2,0.1,0.3
			c0.3,0.7,0.6,1.4,1,2.1c0,0.1,0.1,0.2,0.1,0.3c0.2,0.4,0.4,0.9,0.6,1.3H252.4z M383.5,81.1l32.9,11.2l24.4,8.3l-1.7,5l-60.8-9.3
			L383.5,81.1z M348.1,327.9c-25.7,0-44.3-26.6-35.1-50.8c6.6-17.3,25.6-27.5,43.7-23.3c0.1,0,0.1,0,0.2,0
			c16.5,3.9,28.8,19.4,28.8,36.5C385.6,311.1,368.8,327.9,348.1,327.9z M402.2,271.1l-6-2c-6.7-15-20.5-26.4-36.5-30
			c-0.1,0-0.2,0-0.3-0.1c-12.1-2.7-25.1-0.9-36.1,4.9c-0.1,0.1-0.3,0.1-0.4,0.2l-13-4.4l7-20.6l92.1,31.4L402.2,271.1z M339.3,210.8
			l2.2-6.5l50.7,7.7l10.1,1.5l-5.7,16.8l-39.9-13.6L339.3,210.8z M428.6,191.3c-0.8,5.3-5.4,9.2-10.7,9.2c-0.6,0-1.1,0-1.7-0.1
			l-2.7-0.4c0,0,0,0,0,0l-63.5-9.7l-8.5-1.3c0,0,0,0,0,0c-0.7-0.1-1.5-0.3-2.2-0.6c0,0,0,0,0,0c-1.9-0.7-3.6-2-4.9-3.7
			c-1.7-2.3-2.4-5.2-2-8.1c0.8-5.3,5.4-9.2,10.7-9.2c0.6,0,1.1,0,1.7,0.1l2.6,0.4h0l72.1,11c0.7,0.1,1.5,0.3,2.2,0.6
			C426.4,181.3,429.4,186.1,428.6,191.3z M358.5,154.4l2.8-8.2l50.1,7.6l10.7,1.6l-2.8,8.2L358.5,154.4z M448.4,133.2
			c-0.8,5.3-5.4,9.2-10.7,9.2c-0.6,0-1.1,0-1.7-0.1l-2.7-0.4c0,0,0,0,0,0l-72-11c-0.7-0.1-1.5-0.3-2.2-0.6c0,0,0,0,0,0
			c-1.9-0.7-3.6-2-4.9-3.7c-1.7-2.3-2.4-5.2-2-8.1c0.8-5.3,5.4-9.2,10.7-9.2c0.6,0,1.1,0,1.7,0.1l2.6,0.4h0l72.1,11
			c0.7,0.1,1.5,0.3,2.2,0.6C446.1,123.1,449.2,128,448.4,133.2z"/>
	</g>
</g>
</svg>
